<svg xmlns="http://www.w3.org/2000/svg" version="1.1" xmlns:xlink="http://www.w3.org/1999/xlink" xmlns:svgjs="http://svgjs.dev/svgjs" width="2000" height="2250" viewBox="0 0 2000 2250"><g transform="matrix(1,0,0,1,0,0)"><svg viewBox="0 0 320 360" data-background-color="#35185a" preserveAspectRatio="xMidYMid meet" height="2250" width="2000" xmlns="http://www.w3.org/2000/svg" xmlns:xlink="http://www.w3.org/1999/xlink"><g id="tight-bounds" transform="matrix(1,0,0,1,0,0)"><svg viewBox="0 0 320 360" height="360" width="320"><g><svg></svg></g><g><svg viewBox="0 0 320 360" height="360" width="320"><g><path d="M160 42.18c72.417 0 131.943 56.114 137.63 127.014h22.37c-1.137-17.82-5.308-34.882-12.133-51.185-7.962-18.957-19.716-36.398-34.502-50.805-14.787-14.787-31.848-26.161-50.806-34.503-20.095-8.341-40.948-12.891-62.559-12.891-21.611 0-42.464 4.171-62.559 12.512-18.957 7.962-36.398 19.716-50.806 34.503-14.787 14.787-26.161 31.848-34.502 50.805-6.825 16.303-10.995 33.744-12.133 51.185h22.37c5.687-70.521 65.213-126.635 137.63-126.635zM160 318.199c-72.417 0-131.943-56.114-137.63-127.014h-22.37c1.137 17.82 5.308 34.882 12.133 51.185 7.962 18.957 19.716 36.398 34.502 50.805 14.787 14.787 31.848 26.161 50.806 34.503 19.716 8.341 40.569 12.512 62.559 12.512 21.991 0 42.464-4.171 62.559-12.512 18.957-7.962 36.398-19.716 50.806-34.503 14.787-14.787 26.161-31.848 34.502-50.805 6.825-16.303 10.995-33.744 12.133-51.185h-22.37c-5.687 70.9-65.213 127.014-137.63 127.014z" fill="#000000" fill-rule="nonzero" stroke="none" stroke-width="1" stroke-linecap="butt" stroke-linejoin="miter" stroke-miterlimit="10" stroke-dasharray="" stroke-dashoffset="0" font-family="none" font-weight="none" font-size="none" text-anchor="none" style="mix-blend-mode: normal" data-fill-palette-color="tertiary"></path></g><g transform="matrix(1,0,0,1,56.902173913043484,90)"><svg viewBox="0 0 206.19565217391303 180" height="180" width="206.19565217391303"><g><svg viewBox="0 0 206.19565217391303 180" height="180" width="206.19565217391303"><g><svg viewBox="0 0 206.19565217391303 180" height="180" width="206.19565217391303"><g><svg viewBox="0 0 206.19565217391303 180" height="180" width="206.19565217391303"><g id="textblocktransform"><svg viewBox="0 0 206.19565217391303 180" height="180" width="206.19565217391303" id="textblock"><g><svg viewBox="0 0 206.19565217391303 180" height="180" width="206.19565217391303"><g transform="matrix(1,0,0,1,0,0)"><svg width="206.19565217391303" viewBox="2.27 -40.43 46.309999999999995 40.43" height="180" data-palette-color="#ffffff"><path d="M12.82 0L12.82-40.43 14.58-40.43 14.58 0 12.82 0ZM9.3 0L9.3-40.43 11.06-40.43 11.06 0 9.3 0ZM5.79 0L5.79-40.43 7.54-40.43 7.54 0 5.79 0ZM2.27 0L2.27-40.43 4.03-40.43 4.03 0 2.27 0ZM37.18-19.48L48.58-14.97 48.58-13.09 34.71-18.55 37.18-19.48ZM32.3-17.63L48.58-11.21 48.58-9.3 29.88-16.7 32.3-17.63ZM27.49-15.75L48.58-7.4 48.58-5.52 25.24-14.75 27.49-15.75ZM18.7-23.02L48.58-34.86 48.58-32.98 18.7-21.14 18.7-23.02ZM18.7-26.81L48.58-38.65 48.58-36.74 18.7-24.93 18.7-26.81ZM18.7-19.24L48.58-31.08 48.58-29.17 18.7-17.36 18.7-19.24ZM18.7-15.48L48.58-27.29 48.58-25.42 21.07-14.53 48.58-3.64 48.58-1.76 18.7-13.57 18.7-15.48Z" opacity="1" transform="matrix(1,0,0,1,0,0)" fill="#000000" class="wordmark-text-0" data-fill-palette-color="primary" id="text-0"></path></svg></g></svg></g></svg></g></svg></g></svg></g></svg></g></svg></g></svg></g><defs></defs></svg><rect width="320" height="360" fill="none" stroke="none" visibility="hidden"></rect></g></svg></g></svg>